<svg xmlns="http://www.w3.org/2000/svg" xmlns:xlink="http://www.w3.org/1999/xlink" width="144" zoomAndPan="magnify" viewBox="0 0 108 36.000001" height="48" preserveAspectRatio="xMidYMid meet" version="1.0"><defs><g/><clipPath id="9dfc13ed26"><path d="M 5.824219 8 L 15 8 L 15 18 L 5.824219 18 Z M 5.824219 8 " clip-rule="nonzero"/></clipPath><clipPath id="667f20f814"><path d="M 11 6.417969 L 21 6.417969 L 21 9 L 11 9 Z M 11 6.417969 " clip-rule="nonzero"/></clipPath><clipPath id="f13e83733e"><path d="M 21 7 L 27.71875 7 L 27.71875 15 L 21 15 Z M 21 7 " clip-rule="nonzero"/></clipPath><clipPath id="fd4df84c51"><path d="M 20 13 L 27.71875 13 L 27.71875 25 L 20 25 Z M 20 13 " clip-rule="nonzero"/></clipPath><clipPath id="192dbef6cc"><path d="M 10 15 L 21 15 L 21 26.851562 L 10 26.851562 Z M 10 15 " clip-rule="nonzero"/></clipPath><clipPath id="c94b846fe6"><path d="M 20 24.238281 L 22.613281 24.238281 L 22.613281 26.8125 L 20 26.8125 Z M 20 24.238281 " clip-rule="nonzero"/></clipPath></defs><g clip-path="url(#9dfc13ed26)"><path fill="#00adef" d="M 6.542969 11.933594 C 7.6875 10.664062 9.285156 9.746094 10.847656 8.898438 L 10.925781 8.855469 L 11.097656 8.761719 C 12.191406 8.988281 13.210938 9.296875 14.144531 9.683594 C 14.007812 11.335938 13.871094 12.984375 13.734375 14.636719 L 13.730469 14.695312 C 12.199219 15.621094 10.644531 16.582031 9.234375 17.6875 C 8.046875 17.238281 6.898438 16.722656 5.824219 16.148438 C 5.886719 14.746094 6.078125 13.472656 6.402344 12.34375 " fill-opacity="1" fill-rule="evenodd"/></g><g clip-path="url(#667f20f814)"><path fill="#ffffff" d="M 20.6875 7.203125 L 20.34375 8.050781 C 20.210938 8.042969 20.074219 8.039062 19.933594 8.039062 C 18.507812 8.039062 16.535156 8.332031 14.664062 8.820312 L 14.425781 8.886719 L 14.421875 8.886719 C 13.542969 8.496094 12.429688 8.175781 11.511719 8.003906 C 11.671875 7.726562 11.894531 7.472656 12.1875 7.214844 C 13.546875 6.71875 14.972656 6.464844 16.429688 6.460938 L 16.453125 6.460938 C 17.894531 6.460938 19.3125 6.707031 20.664062 7.195312 L 20.6875 7.203125 " fill-opacity="1" fill-rule="evenodd"/></g><g clip-path="url(#f13e83733e)"><path fill="#ffffff" d="M 27.632812 13.492188 C 27.632812 13.988281 27.578125 14.417969 27.464844 14.785156 C 27.425781 14.757812 27.390625 14.734375 27.355469 14.707031 C 27.335938 14.695312 27.316406 14.683594 27.296875 14.671875 C 27.25 14.636719 27.199219 14.601562 27.148438 14.570312 C 26.367188 14.054688 25.527344 13.601562 24.640625 13.214844 L 24.484375 12.945312 C 23.515625 11.273438 22.378906 9.730469 21.097656 8.359375 L 21.507812 7.535156 C 21.640625 7.597656 21.777344 7.65625 21.90625 7.722656 L 21.945312 7.742188 C 23.148438 8.335938 24.242188 9.121094 25.199219 10.078125 C 26.207031 11.078125 27.023438 12.226562 27.632812 13.492188 " fill-opacity="1" fill-rule="evenodd"/></g><g clip-path="url(#fd4df84c51)"><path fill="#00adef" d="M 27.871094 20.730469 L 27.871094 20.75 C 27.867188 20.863281 27.863281 20.976562 27.859375 21.089844 L 27.855469 21.238281 C 27.125 22.425781 26.300781 23.53125 25.394531 24.539062 C 24.027344 24.082031 22.707031 23.550781 21.46875 22.953125 C 21.363281 21.546875 21.078125 19.699219 20.8125 18.355469 C 20.769531 18.117188 20.730469 17.890625 20.6875 17.675781 L 20.699219 17.667969 C 21.96875 16.476562 23.179688 15.195312 24.300781 13.851562 C 25.355469 14.367188 26.332031 14.96875 27.21875 15.644531 L 27.328125 15.976562 L 27.332031 16 C 27.738281 17.335938 27.917969 18.929688 27.871094 20.730469 " fill-opacity="1" fill-rule="evenodd"/></g><g clip-path="url(#192dbef6cc)"><path fill="#00adef" d="M 20.226562 23.261719 L 20.226562 23.265625 C 20.222656 23.269531 20.214844 23.273438 20.210938 23.277344 L 20.179688 23.304688 C 18.96875 24.339844 17.613281 25.25 16.097656 26.230469 L 15.890625 26.363281 L 10.902344 24.324219 C 10.902344 24.3125 10.898438 24.300781 10.894531 24.285156 L 10.78125 23.753906 L 10.773438 23.753906 C 10.421875 22.101562 10.183594 20.3125 10.070312 18.421875 L 10.066406 18.390625 L 14.152344 15.3125 L 14.46875 15.074219 C 16.277344 15.679688 17.984375 16.394531 19.542969 17.199219 C 19.5625 17.335938 19.582031 17.464844 19.601562 17.597656 C 19.863281 19.425781 20.070312 21.328125 20.226562 23.261719 " fill-opacity="1" fill-rule="evenodd"/></g><path fill="#00adef" d="M 8.859375 20.21875 C 8.855469 20.21875 8.855469 20.21875 8.855469 20.21875 L 8.847656 20.226562 C 8.582031 20.453125 8.289062 20.652344 7.957031 20.863281 L 7.914062 20.894531 L 6.824219 20.449219 C 6.824219 20.445312 6.824219 20.445312 6.824219 20.441406 L 6.800781 20.324219 L 6.796875 20.324219 C 6.722656 19.964844 6.667969 19.574219 6.640625 19.164062 L 6.640625 19.15625 L 7.535156 18.484375 L 7.601562 18.433594 C 7.996094 18.566406 8.371094 18.71875 8.707031 18.894531 C 8.714844 18.925781 8.71875 18.953125 8.722656 18.980469 C 8.777344 19.382812 8.824219 19.796875 8.859375 20.21875 " fill-opacity="1" fill-rule="evenodd"/><g clip-path="url(#c94b846fe6)"><path fill="#00adef" d="M 22.378906 26.136719 C 22.378906 26.136719 22.375 26.136719 22.375 26.136719 L 22.367188 26.144531 C 22.105469 26.371094 21.808594 26.566406 21.476562 26.78125 L 21.433594 26.8125 L 20.347656 26.367188 C 20.34375 26.363281 20.34375 26.359375 20.34375 26.359375 L 20.320312 26.242188 L 20.316406 26.242188 C 20.242188 25.882812 20.1875 25.492188 20.164062 25.078125 L 20.164062 25.074219 L 21.054688 24.402344 L 21.121094 24.347656 C 21.515625 24.480469 21.890625 24.636719 22.230469 24.8125 C 22.234375 24.839844 22.238281 24.871094 22.242188 24.902344 C 22.296875 25.296875 22.34375 25.714844 22.378906 26.136719 " fill-opacity="1" fill-rule="evenodd"/></g><path fill="#ffffff" d="M 23.976562 13.207031 C 22.832031 14.582031 21.609375 15.882812 20.308594 17.105469 L 20.199219 17.042969 C 20.132812 17.007812 20.066406 16.972656 19.960938 16.917969 C 19.953125 16.914062 19.941406 16.90625 19.929688 16.902344 C 18.238281 16.011719 16.417969 15.253906 14.476562 14.617188 C 14.617188 12.921875 14.753906 11.222656 14.894531 9.527344 L 14.90625 9.394531 C 16.882812 8.878906 19.113281 8.5625 20.507812 8.652344 L 20.597656 8.65625 C 21.878906 10.019531 23.007812 11.535156 23.976562 13.207031 " fill-opacity="1" fill-rule="evenodd"/><g fill="#ffffff" fill-opacity="1"><g transform="translate(33.257526, 19.745316)"><g><path d="M 1.34375 0 L 0.34375 0 L 0.34375 -5.1875 L 4.875 -5.1875 L 4.875 -4.25 L 1.34375 -4.25 L 1.34375 -3.09375 L 4.65625 -3.09375 L 4.65625 -2.203125 L 1.34375 -2.203125 Z M 1.34375 0 "/></g></g></g><g fill="#ffffff" fill-opacity="1"><g transform="translate(38.749008, 19.745316)"><g><path d="M 3.4375 0.078125 C 2.78125 0.078125 2.210938 -0.03125 1.734375 -0.25 C 1.265625 -0.476562 0.898438 -0.789062 0.640625 -1.1875 C 0.390625 -1.59375 0.265625 -2.0625 0.265625 -2.59375 C 0.265625 -3.132812 0.390625 -3.601562 0.640625 -4 C 0.898438 -4.40625 1.265625 -4.71875 1.734375 -4.9375 C 2.210938 -5.15625 2.78125 -5.265625 3.4375 -5.265625 C 4.09375 -5.265625 4.65625 -5.15625 5.125 -4.9375 C 5.601562 -4.71875 5.972656 -4.40625 6.234375 -4 C 6.492188 -3.601562 6.625 -3.132812 6.625 -2.59375 C 6.625 -2.0625 6.492188 -1.59375 6.234375 -1.1875 C 5.972656 -0.789062 5.601562 -0.476562 5.125 -0.25 C 4.65625 -0.03125 4.09375 0.078125 3.4375 0.078125 Z M 3.4375 -0.859375 C 3.875 -0.859375 4.253906 -0.925781 4.578125 -1.0625 C 4.898438 -1.207031 5.148438 -1.410156 5.328125 -1.671875 C 5.503906 -1.929688 5.59375 -2.238281 5.59375 -2.59375 C 5.59375 -2.945312 5.503906 -3.253906 5.328125 -3.515625 C 5.148438 -3.773438 4.898438 -3.972656 4.578125 -4.109375 C 4.253906 -4.253906 3.875 -4.328125 3.4375 -4.328125 C 2.988281 -4.328125 2.601562 -4.253906 2.28125 -4.109375 C 1.957031 -3.972656 1.707031 -3.773438 1.53125 -3.515625 C 1.363281 -3.253906 1.28125 -2.945312 1.28125 -2.59375 C 1.28125 -2.238281 1.367188 -1.929688 1.546875 -1.671875 C 1.722656 -1.410156 1.972656 -1.207031 2.296875 -1.0625 C 2.617188 -0.925781 3 -0.859375 3.4375 -0.859375 Z M 3.4375 -0.859375 "/></g></g></g><g fill="#ffffff" fill-opacity="1"><g transform="translate(46.009256, 19.745316)"><g><path d="M 3.4375 0.078125 C 2.78125 0.078125 2.210938 -0.03125 1.734375 -0.25 C 1.265625 -0.476562 0.898438 -0.789062 0.640625 -1.1875 C 0.390625 -1.59375 0.265625 -2.0625 0.265625 -2.59375 C 0.265625 -3.132812 0.390625 -3.601562 0.640625 -4 C 0.898438 -4.40625 1.265625 -4.71875 1.734375 -4.9375 C 2.210938 -5.15625 2.78125 -5.265625 3.4375 -5.265625 C 4.09375 -5.265625 4.65625 -5.15625 5.125 -4.9375 C 5.601562 -4.71875 5.972656 -4.40625 6.234375 -4 C 6.492188 -3.601562 6.625 -3.132812 6.625 -2.59375 C 6.625 -2.0625 6.492188 -1.59375 6.234375 -1.1875 C 5.972656 -0.789062 5.601562 -0.476562 5.125 -0.25 C 4.65625 -0.03125 4.09375 0.078125 3.4375 0.078125 Z M 3.4375 -0.859375 C 3.875 -0.859375 4.253906 -0.925781 4.578125 -1.0625 C 4.898438 -1.207031 5.148438 -1.410156 5.328125 -1.671875 C 5.503906 -1.929688 5.59375 -2.238281 5.59375 -2.59375 C 5.59375 -2.945312 5.503906 -3.253906 5.328125 -3.515625 C 5.148438 -3.773438 4.898438 -3.972656 4.578125 -4.109375 C 4.253906 -4.253906 3.875 -4.328125 3.4375 -4.328125 C 2.988281 -4.328125 2.601562 -4.253906 2.28125 -4.109375 C 1.957031 -3.972656 1.707031 -3.773438 1.53125 -3.515625 C 1.363281 -3.253906 1.28125 -2.945312 1.28125 -2.59375 C 1.28125 -2.238281 1.367188 -1.929688 1.546875 -1.671875 C 1.722656 -1.410156 1.972656 -1.207031 2.296875 -1.0625 C 2.617188 -0.925781 3 -0.859375 3.4375 -0.859375 Z M 3.4375 -0.859375 "/></g></g></g><g fill="#ffffff" fill-opacity="1"><g transform="translate(53.269505, 19.745316)"><g><path d="M 3.328125 0 L 2.3125 0 L 2.3125 -4.25 L 0.125 -4.25 L 0.125 -5.1875 L 5.515625 -5.1875 L 5.515625 -4.25 L 3.328125 -4.25 Z M 3.328125 0 "/></g></g></g><g fill="#ffffff" fill-opacity="1"><g transform="translate(59.284594, 19.745316)"><g><path d="M 3.640625 0 L 0.34375 0 L 0.34375 -5.1875 L 3.53125 -5.1875 C 4.113281 -5.1875 4.539062 -5.066406 4.8125 -4.828125 C 5.082031 -4.597656 5.21875 -4.289062 5.21875 -3.90625 C 5.21875 -3.65625 5.148438 -3.425781 5.015625 -3.21875 C 4.890625 -3.019531 4.71875 -2.867188 4.5 -2.765625 C 4.800781 -2.679688 5.035156 -2.523438 5.203125 -2.296875 C 5.367188 -2.078125 5.453125 -1.820312 5.453125 -1.53125 L 5.453125 -1.515625 C 5.453125 -1.015625 5.300781 -0.632812 5 -0.375 C 4.695312 -0.125 4.242188 0 3.640625 0 Z M 1.359375 -4.25 L 1.359375 -3.03125 L 3.421875 -3.03125 C 3.691406 -3.03125 3.890625 -3.082031 4.015625 -3.1875 C 4.140625 -3.300781 4.203125 -3.445312 4.203125 -3.625 L 4.203125 -3.640625 C 4.203125 -3.804688 4.140625 -3.945312 4.015625 -4.0625 C 3.890625 -4.1875 3.691406 -4.25 3.421875 -4.25 Z M 1.359375 -2.265625 L 1.359375 -0.9375 L 3.546875 -0.9375 C 3.835938 -0.9375 4.054688 -1 4.203125 -1.125 C 4.347656 -1.25 4.421875 -1.421875 4.421875 -1.640625 L 4.421875 -1.65625 C 4.421875 -1.851562 4.34375 -2.003906 4.1875 -2.109375 C 4.039062 -2.210938 3.820312 -2.265625 3.53125 -2.265625 Z M 1.359375 -2.265625 "/></g></g></g><g fill="#ffffff" fill-opacity="1"><g transform="translate(65.350764, 19.745316)"><g><path d="M 6.515625 0 L 5.4375 0 L 4.78125 -1.3125 L 1.8125 -1.3125 L 1.15625 0 L 0.09375 0 L 2.703125 -5.1875 L 3.875 -5.1875 Z M 4.359375 -2.171875 L 3.296875 -4.3125 L 2.25 -2.171875 Z M 4.359375 -2.171875 "/></g></g></g><g fill="#ffffff" fill-opacity="1"><g transform="translate(72.323671, 19.745316)"><g><path d="M 4.84375 0 L 0.34375 0 L 0.34375 -5.1875 L 1.359375 -5.1875 L 1.359375 -0.9375 L 4.84375 -0.9375 Z M 4.84375 0 "/></g></g></g><g fill="#ffffff" fill-opacity="1"><g transform="translate(77.674671, 19.745316)"><g><path d="M 4.84375 0 L 0.34375 0 L 0.34375 -5.1875 L 1.359375 -5.1875 L 1.359375 -0.9375 L 4.84375 -0.9375 Z M 4.84375 0 "/></g></g></g><g fill="#ffffff" fill-opacity="1"><g transform="translate(83.02567, 19.745316)"><g/></g></g><g fill="#ffffff" fill-opacity="1"><g transform="translate(84.807209, 19.745316)"><g><path d="M 1.359375 0 L 0.34375 0 L 0.34375 -5.1875 L 1.359375 -5.1875 L 1.359375 -3.109375 L 4.609375 -3.109375 L 4.609375 -5.1875 L 5.625 -5.1875 L 5.625 0 L 4.609375 0 L 4.609375 -2.171875 L 1.359375 -2.171875 Z M 1.359375 0 "/></g></g></g><g fill="#ffffff" fill-opacity="1"><g transform="translate(91.147954, 19.745316)"><g><path d="M 3 0.078125 C 2.46875 0.078125 2.003906 0 1.609375 -0.15625 C 1.210938 -0.3125 0.898438 -0.550781 0.671875 -0.875 C 0.453125 -1.207031 0.34375 -1.628906 0.34375 -2.140625 L 0.34375 -5.1875 L 1.359375 -5.1875 L 1.359375 -2.359375 C 1.359375 -1.816406 1.503906 -1.429688 1.796875 -1.203125 C 2.085938 -0.972656 2.488281 -0.859375 3 -0.859375 C 3.507812 -0.859375 3.910156 -0.972656 4.203125 -1.203125 C 4.492188 -1.429688 4.640625 -1.816406 4.640625 -2.359375 L 4.640625 -5.1875 L 5.65625 -5.1875 L 5.65625 -2.140625 C 5.65625 -1.628906 5.539062 -1.207031 5.3125 -0.875 C 5.09375 -0.550781 4.785156 -0.3125 4.390625 -0.15625 C 3.992188 0 3.53125 0.078125 3 0.078125 Z M 3 0.078125 "/></g></g></g><g fill="#ffffff" fill-opacity="1"><g transform="translate(97.527015, 19.745316)"><g><path d="M 3.640625 0 L 0.34375 0 L 0.34375 -5.1875 L 3.53125 -5.1875 C 4.113281 -5.1875 4.539062 -5.066406 4.8125 -4.828125 C 5.082031 -4.597656 5.21875 -4.289062 5.21875 -3.90625 C 5.21875 -3.65625 5.148438 -3.425781 5.015625 -3.21875 C 4.890625 -3.019531 4.71875 -2.867188 4.5 -2.765625 C 4.800781 -2.679688 5.035156 -2.523438 5.203125 -2.296875 C 5.367188 -2.078125 5.453125 -1.820312 5.453125 -1.53125 L 5.453125 -1.515625 C 5.453125 -1.015625 5.300781 -0.632812 5 -0.375 C 4.695312 -0.125 4.242188 0 3.640625 0 Z M 1.359375 -4.25 L 1.359375 -3.03125 L 3.421875 -3.03125 C 3.691406 -3.03125 3.890625 -3.082031 4.015625 -3.1875 C 4.140625 -3.300781 4.203125 -3.445312 4.203125 -3.625 L 4.203125 -3.640625 C 4.203125 -3.804688 4.140625 -3.945312 4.015625 -4.0625 C 3.890625 -4.1875 3.691406 -4.25 3.421875 -4.25 Z M 1.359375 -2.265625 L 1.359375 -0.9375 L 3.546875 -0.9375 C 3.835938 -0.9375 4.054688 -1 4.203125 -1.125 C 4.347656 -1.25 4.421875 -1.421875 4.421875 -1.640625 L 4.421875 -1.65625 C 4.421875 -1.851562 4.34375 -2.003906 4.1875 -2.109375 C 4.039062 -2.210938 3.820312 -2.265625 3.53125 -2.265625 Z M 1.359375 -2.265625 "/></g></g></g></svg>